<?xml version="1.0" encoding="UTF-8"?>
<svg version="1.1" xmlns="http://www.w3.org/2000/svg" width="512" height="512">
<path d="M0 0 C3.47311599 2.87528455 6.0884115 6.20330522 8.83203125 9.765625 C15.98228333 18.96296023 24.3656753 27.60924112 33.3828125 34.97265625 C34.66285156 36.08447266 34.66285156 36.08447266 35.96875 37.21875 C79.31483353 74.46384322 135.49033124 92.34707782 192.390625 88.41015625 C221.40179889 86.03537303 249.80120577 78.90626469 275.49267578 64.99365234 C277.4027587 63.9618819 279.3272089 62.96127296 281.25390625 61.9609375 C296.4868487 53.89098091 310.2540041 43.50944353 322.6640625 31.57421875 C324.90900919 29.426037 327.18987172 27.40330309 329.5703125 25.41015625 C336.31787677 19.55753209 342.10006764 12.72819164 347.4453125 5.59765625 C352.51348877 -0.77810949 357.78547986 -3.93188871 365.8828125 -5.02734375 C373.61839286 -5.40600852 380.4407741 -3.02405786 386.3828125 1.97265625 C390.69071928 7.73988105 392.54620658 12.40105241 392.6953125 19.66015625 C392.73269531 20.83964844 392.77007812 22.01914063 392.80859375 23.234375 C391.95086243 30.76509859 387.81085584 36.19609045 382.8828125 41.72265625 C382.34180908 42.33955322 381.80080566 42.9564502 381.2434082 43.59204102 C373.0461845 52.78170827 364.17168482 61.35495297 355.3828125 69.97265625 C359.06701521 77.54641868 362.97026885 84.8873663 367.3203125 92.09765625 C368.45301106 93.99538509 369.58446545 95.89385694 370.71484375 97.79296875 C371.30604004 98.78586914 371.89723633 99.77876953 372.50634766 100.80175781 C375.54175219 105.93106228 378.53154976 111.08648677 381.51174927 116.24798584 C382.48806536 117.93846434 383.46654482 119.62769283 384.44506836 121.31689453 C385.04585205 122.3582959 385.64663574 123.39969727 386.265625 124.47265625 C387.06057373 125.849375 387.06057373 125.849375 387.87158203 127.25390625 C392.65377356 135.8572156 394.25934102 143.70110822 391.7265625 153.515625 C388.93372134 159.73932707 383.94096736 163.46785928 378.1953125 166.84765625 C369.76172275 169.33625651 362.54496839 168.73581827 354.734375 164.75 C347.63797097 159.38643881 343.79866579 151.78399798 339.6328125 144.09765625 C338.39720442 141.85471289 337.1602199 139.61252726 335.921875 137.37109375 C335.01937012 135.73285645 335.01937012 135.73285645 334.09863281 134.06152344 C327.86329841 122.83650197 321.1685117 111.87147479 314.3828125 100.97265625 C313.79717529 101.30885986 313.21153809 101.64506348 312.6081543 101.99145508 C300.59118155 108.83324366 288.56429807 115.02464226 275.7578125 120.22265625 C274.61530029 120.68776611 273.47278809 121.15287598 272.2956543 121.63208008 C267.27536517 123.62164795 262.72743456 125.13552661 257.3828125 125.97265625 C257.50809326 126.66010925 257.63337402 127.34756226 257.76245117 128.05584717 C258.95023531 134.58421584 260.12778893 141.11434115 261.29432678 147.6465416 C261.89418118 151.00350102 262.49775528 154.35969588 263.11035156 157.71435547 C263.81696762 161.5848595 264.50646991 165.45832308 265.1953125 169.33203125 C265.41405029 170.51690125 265.63278809 171.70177124 265.8581543 172.92254639 C267.68095955 183.30428421 269.36779739 193.2843983 263.92578125 202.78125 C259.42730262 209.17022851 253.98257049 212.34413668 246.3828125 213.97265625 C239.06209922 214.75701839 232.31822292 212.82590785 226.5703125 208.22265625 C220.29823105 202.83331219 218.60601693 195.84144292 217.3125 188.05078125 C217.06175217 186.63983185 217.06175217 186.63983185 216.80593872 185.20037842 C216.27736793 182.20984165 215.76724973 179.2165054 215.2578125 176.22265625 C214.90878341 174.22764877 214.55853389 172.2328544 214.20703125 170.23828125 C213.40813677 165.69456006 212.62331134 161.14858595 211.84417725 156.60144043 C211.18610796 152.85186456 210.47950851 149.11150051 209.76907349 145.371521 C209.31418067 142.5464199 209.22843878 139.82857013 209.3828125 136.97265625 C208.48598755 137.07862625 208.48598755 137.07862625 207.57104492 137.18673706 C201.2575145 137.88220091 195.04370885 138.11938824 188.6953125 138.10546875 C187.71216064 138.10642548 186.72900879 138.1073822 185.71606445 138.10836792 C183.65218033 138.10904376 181.58829401 138.10723142 179.52441406 138.10302734 C176.39122681 138.09767064 173.25818287 138.10299277 170.125 138.109375 C168.10677052 138.10871411 166.08854113 138.10743273 164.0703125 138.10546875 C162.68549683 138.1085051 162.68549683 138.1085051 161.27270508 138.11160278 C155.2550323 138.0902398 149.35860768 137.67876397 143.3828125 136.97265625 C143.33296707 137.55957245 143.28312164 138.14648865 143.23176575 138.75119019 C142.61933819 145.43405399 141.62096886 151.99831784 140.45703125 158.60546875 C140.26816849 159.68214813 140.07930573 160.75882751 139.88471985 161.86813354 C139.48595161 164.12910815 139.08497408 166.38969411 138.68188477 168.64990234 C138.07117514 172.09279309 137.47790572 175.53842002 136.88476562 178.984375 C136.49326245 181.19159719 136.10071946 183.39863525 135.70703125 185.60546875 C135.53394943 186.62649689 135.36086761 187.64752502 135.18254089 188.69949341 C133.46281584 198.12432985 130.72709467 204.85694682 122.734375 210.55859375 C116.01393315 214.59978968 108.9534927 214.6636257 101.3828125 212.97265625 C94.8532557 210.2641826 89.38340631 205.14514731 86.32250977 198.76126099 C83.12587301 189.27506079 85.75404509 177.92657921 87.5703125 168.35546875 C87.79227295 167.1322995 88.0142334 165.90913025 88.24291992 164.64889526 C88.94472587 160.79627049 89.66343784 156.94703489 90.3828125 153.09765625 C90.86710216 150.46399662 91.34749112 147.82964391 91.828125 145.1953125 C93.00012012 138.78533338 94.18595854 132.37803775 95.3828125 125.97265625 C94.20750473 125.74412964 94.20750473 125.74412964 93.00845337 125.51098633 C73.80725802 121.57420232 55.07514857 110.87789766 38.3828125 100.97265625 C33.24626663 109.20270687 28.29326429 117.50758508 23.51245117 125.95083618 C22.47887844 127.77368549 21.4403636 129.59363706 20.40039062 131.4128418 C17.37756265 136.7017428 14.36430728 141.99477871 11.40625 147.3203125 C6.3970779 156.24668534 1.66352672 164.67984778 -8.6171875 167.97265625 C-16.59933138 168.79280484 -23.99844293 168.90048068 -30.6171875 163.97265625 C-37.41446729 158.25676188 -39.91055618 152.60350042 -40.83203125 144.01171875 C-40.31099221 136.64138467 -36.93619836 130.21325865 -33.3046875 123.91015625 C-32.87663818 123.153396 -32.44858887 122.39663574 -32.00756836 121.61694336 C-27.12040801 113.01543759 -22.11480878 104.48063984 -17.11328125 95.9453125 C-13.80437151 90.29843661 -10.5185277 84.63847924 -7.2421875 78.97265625 C-6.77176025 78.15933838 -6.30133301 77.34602051 -5.81665039 76.50805664 C-4.74981229 74.66312579 -3.68343988 72.81792567 -2.6171875 70.97265625 C-7.20853552 65.43238097 -12.15398319 60.42785861 -17.3046875 55.41015625 C-22.89041511 49.89550111 -28.26992632 44.3410643 -33.1171875 38.16015625 C-33.55506592 37.60448975 -33.99294434 37.04882324 -34.4440918 36.47631836 C-40.13814569 28.97928207 -40.46187296 22.19119885 -39.6171875 12.97265625 C-37.65678707 6.14834339 -33.12271758 1.37026671 -27.1171875 -2.27734375 C-18.00642707 -6.83272397 -8.3798694 -5.55593222 0 0 Z " fill="#000000" transform="translate(79.6171875,190.02734375)"/>
</svg>
